<?xml version="1.0" encoding="utf-8"?>
<svg xmlns="http://www.w3.org/2000/svg" xmlns:xlink="http://www.w3.org/1999/xlink" width="600" height="400" viewBox="0 0 2400 1600">
<defs>
  <clipPath id="clip990">
    <rect x="0" y="0" width="2400" height="1600"/>
  </clipPath>
</defs>
<path clip-path="url(#clip990)" d="M0 1600 L2400 1600 L2400 0 L0 0  Z" fill="#ffffff" fill-rule="evenodd" fill-opacity="1"/>
<defs>
  <clipPath id="clip991">
    <rect x="480" y="0" width="1681" height="1600"/>
  </clipPath>
</defs>
<path clip-path="url(#clip990)" d="M249.542 1423.18 L2352.76 1423.18 L2352.76 47.2441 L249.542 47.2441  Z" fill="#ffffff" fill-rule="evenodd" fill-opacity="1"/>
<defs>
  <clipPath id="clip992">
    <rect x="249" y="47" width="2104" height="1377"/>
  </clipPath>
</defs>
<polyline clip-path="url(#clip992)" style="stroke:#000000; stroke-linecap:round; stroke-linejoin:round; stroke-width:2; stroke-opacity:0.1; fill:none" points="309.067,1423.18 309.067,47.2441 "/>
<polyline clip-path="url(#clip992)" style="stroke:#000000; stroke-linecap:round; stroke-linejoin:round; stroke-width:2; stroke-opacity:0.1; fill:none" points="805.108,1423.18 805.108,47.2441 "/>
<polyline clip-path="url(#clip992)" style="stroke:#000000; stroke-linecap:round; stroke-linejoin:round; stroke-width:2; stroke-opacity:0.1; fill:none" points="1301.15,1423.18 1301.15,47.2441 "/>
<polyline clip-path="url(#clip992)" style="stroke:#000000; stroke-linecap:round; stroke-linejoin:round; stroke-width:2; stroke-opacity:0.1; fill:none" points="1797.19,1423.18 1797.19,47.2441 "/>
<polyline clip-path="url(#clip992)" style="stroke:#000000; stroke-linecap:round; stroke-linejoin:round; stroke-width:2; stroke-opacity:0.1; fill:none" points="2293.23,1423.18 2293.23,47.2441 "/>
<polyline clip-path="url(#clip990)" style="stroke:#000000; stroke-linecap:round; stroke-linejoin:round; stroke-width:4; stroke-opacity:1; fill:none" points="249.542,1423.18 2352.76,1423.18 "/>
<polyline clip-path="url(#clip990)" style="stroke:#000000; stroke-linecap:round; stroke-linejoin:round; stroke-width:4; stroke-opacity:1; fill:none" points="309.067,1423.18 309.067,1404.28 "/>
<polyline clip-path="url(#clip990)" style="stroke:#000000; stroke-linecap:round; stroke-linejoin:round; stroke-width:4; stroke-opacity:1; fill:none" points="805.108,1423.18 805.108,1404.28 "/>
<polyline clip-path="url(#clip990)" style="stroke:#000000; stroke-linecap:round; stroke-linejoin:round; stroke-width:4; stroke-opacity:1; fill:none" points="1301.15,1423.18 1301.15,1404.28 "/>
<polyline clip-path="url(#clip990)" style="stroke:#000000; stroke-linecap:round; stroke-linejoin:round; stroke-width:4; stroke-opacity:1; fill:none" points="1797.19,1423.18 1797.19,1404.28 "/>
<polyline clip-path="url(#clip990)" style="stroke:#000000; stroke-linecap:round; stroke-linejoin:round; stroke-width:4; stroke-opacity:1; fill:none" points="2293.23,1423.18 2293.23,1404.28 "/>
<path clip-path="url(#clip990)" d="M309.067 1454.1 Q305.456 1454.1 303.627 1457.66 Q301.822 1461.2 301.822 1468.33 Q301.822 1475.44 303.627 1479.01 Q305.456 1482.55 309.067 1482.55 Q312.701 1482.55 314.507 1479.01 Q316.335 1475.44 316.335 1468.33 Q316.335 1461.2 314.507 1457.66 Q312.701 1454.1 309.067 1454.1 M309.067 1450.39 Q314.877 1450.39 317.933 1455 Q321.011 1459.58 321.011 1468.33 Q321.011 1477.06 317.933 1481.67 Q314.877 1486.25 309.067 1486.25 Q303.257 1486.25 300.178 1481.67 Q297.123 1477.06 297.123 1468.33 Q297.123 1459.58 300.178 1455 Q303.257 1450.39 309.067 1450.39 Z" fill="#000000" fill-rule="evenodd" fill-opacity="1" /><path clip-path="url(#clip990)" d="M768.8 1481.64 L785.12 1481.64 L785.12 1485.58 L763.175 1485.58 L763.175 1481.64 Q765.837 1478.89 770.421 1474.26 Q775.027 1469.61 776.208 1468.27 Q778.453 1465.74 779.333 1464.01 Q780.235 1462.25 780.235 1460.56 Q780.235 1457.8 778.291 1456.07 Q776.37 1454.33 773.268 1454.33 Q771.069 1454.33 768.615 1455.09 Q766.185 1455.86 763.407 1457.41 L763.407 1452.69 Q766.231 1451.55 768.685 1450.97 Q771.138 1450.39 773.175 1450.39 Q778.546 1450.39 781.74 1453.08 Q784.934 1455.77 784.934 1460.26 Q784.934 1462.39 784.124 1464.31 Q783.337 1466.2 781.231 1468.8 Q780.652 1469.47 777.55 1472.69 Q774.448 1475.88 768.8 1481.64 Z" fill="#000000" fill-rule="evenodd" fill-opacity="1" /><path clip-path="url(#clip990)" d="M794.981 1451.02 L813.337 1451.02 L813.337 1454.96 L799.263 1454.96 L799.263 1463.43 Q800.282 1463.08 801.3 1462.92 Q802.319 1462.73 803.337 1462.73 Q809.124 1462.73 812.504 1465.9 Q815.883 1469.08 815.883 1474.49 Q815.883 1480.07 812.411 1483.17 Q808.939 1486.25 802.62 1486.25 Q800.444 1486.25 798.175 1485.88 Q795.93 1485.51 793.522 1484.77 L793.522 1480.07 Q795.606 1481.2 797.828 1481.76 Q800.05 1482.32 802.527 1482.32 Q806.532 1482.32 808.87 1480.21 Q811.207 1478.1 811.207 1474.49 Q811.207 1470.88 808.87 1468.77 Q806.532 1466.67 802.527 1466.67 Q800.652 1466.67 798.777 1467.08 Q796.925 1467.5 794.981 1468.38 L794.981 1451.02 Z" fill="#000000" fill-rule="evenodd" fill-opacity="1" /><path clip-path="url(#clip990)" d="M835.096 1454.1 Q831.485 1454.1 829.656 1457.66 Q827.851 1461.2 827.851 1468.33 Q827.851 1475.44 829.656 1479.01 Q831.485 1482.55 835.096 1482.55 Q838.73 1482.55 840.536 1479.01 Q842.365 1475.44 842.365 1468.33 Q842.365 1461.2 840.536 1457.66 Q838.73 1454.1 835.096 1454.1 M835.096 1450.39 Q840.906 1450.39 843.962 1455 Q847.041 1459.58 847.041 1468.33 Q847.041 1477.06 843.962 1481.67 Q840.906 1486.25 835.096 1486.25 Q829.286 1486.25 826.207 1481.67 Q823.152 1477.06 823.152 1468.33 Q823.152 1459.58 826.207 1455 Q829.286 1450.39 835.096 1450.39 Z" fill="#000000" fill-rule="evenodd" fill-opacity="1" /><path clip-path="url(#clip990)" d="M1260.77 1451.02 L1279.12 1451.02 L1279.12 1454.96 L1265.05 1454.96 L1265.05 1463.43 Q1266.07 1463.08 1267.09 1462.92 Q1268.11 1462.73 1269.12 1462.73 Q1274.91 1462.73 1278.29 1465.9 Q1281.67 1469.08 1281.67 1474.49 Q1281.67 1480.07 1278.2 1483.17 Q1274.73 1486.25 1268.41 1486.25 Q1266.23 1486.25 1263.96 1485.88 Q1261.72 1485.51 1259.31 1484.77 L1259.31 1480.07 Q1261.39 1481.2 1263.61 1481.76 Q1265.84 1482.32 1268.31 1482.32 Q1272.32 1482.32 1274.66 1480.21 Q1276.99 1478.1 1276.99 1474.49 Q1276.99 1470.88 1274.66 1468.77 Q1272.32 1466.67 1268.31 1466.67 Q1266.44 1466.67 1264.56 1467.08 Q1262.71 1467.5 1260.77 1468.38 L1260.77 1451.02 Z" fill="#000000" fill-rule="evenodd" fill-opacity="1" /><path clip-path="url(#clip990)" d="M1300.88 1454.1 Q1297.27 1454.1 1295.44 1457.66 Q1293.64 1461.2 1293.64 1468.33 Q1293.64 1475.44 1295.44 1479.01 Q1297.27 1482.55 1300.88 1482.55 Q1304.52 1482.55 1306.32 1479.01 Q1308.15 1475.44 1308.15 1468.33 Q1308.15 1461.2 1306.32 1457.66 Q1304.52 1454.1 1300.88 1454.1 M1300.88 1450.39 Q1306.69 1450.39 1309.75 1455 Q1312.83 1459.58 1312.83 1468.33 Q1312.83 1477.06 1309.75 1481.67 Q1306.69 1486.25 1300.88 1486.25 Q1295.07 1486.25 1291.99 1481.67 Q1288.94 1477.06 1288.94 1468.33 Q1288.94 1459.58 1291.99 1455 Q1295.07 1450.39 1300.88 1450.39 Z" fill="#000000" fill-rule="evenodd" fill-opacity="1" /><path clip-path="url(#clip990)" d="M1331.04 1454.1 Q1327.43 1454.1 1325.6 1457.66 Q1323.8 1461.2 1323.8 1468.33 Q1323.8 1475.44 1325.6 1479.01 Q1327.43 1482.55 1331.04 1482.55 Q1334.68 1482.55 1336.48 1479.01 Q1338.31 1475.44 1338.31 1468.33 Q1338.31 1461.2 1336.48 1457.66 Q1334.68 1454.1 1331.04 1454.1 M1331.04 1450.39 Q1336.85 1450.39 1339.91 1455 Q1342.99 1459.58 1342.99 1468.33 Q1342.99 1477.06 1339.91 1481.67 Q1336.85 1486.25 1331.04 1486.25 Q1325.23 1486.25 1322.16 1481.67 Q1319.1 1477.06 1319.1 1468.33 Q1319.1 1459.58 1322.16 1455 Q1325.23 1450.39 1331.04 1450.39 Z" fill="#000000" fill-rule="evenodd" fill-opacity="1" /><path clip-path="url(#clip990)" d="M1755.47 1451.02 L1777.69 1451.02 L1777.69 1453.01 L1765.14 1485.58 L1760.26 1485.58 L1772.06 1454.96 L1755.47 1454.96 L1755.47 1451.02 Z" fill="#000000" fill-rule="evenodd" fill-opacity="1" /><path clip-path="url(#clip990)" d="M1786.85 1451.02 L1805.21 1451.02 L1805.21 1454.96 L1791.14 1454.96 L1791.14 1463.43 Q1792.16 1463.08 1793.17 1462.92 Q1794.19 1462.73 1795.21 1462.73 Q1801 1462.73 1804.38 1465.9 Q1807.76 1469.08 1807.76 1474.49 Q1807.76 1480.07 1804.28 1483.17 Q1800.81 1486.25 1794.49 1486.25 Q1792.32 1486.25 1790.05 1485.88 Q1787.8 1485.51 1785.4 1484.77 L1785.4 1480.07 Q1787.48 1481.2 1789.7 1481.76 Q1791.92 1482.32 1794.4 1482.32 Q1798.41 1482.32 1800.74 1480.21 Q1803.08 1478.1 1803.08 1474.49 Q1803.08 1470.88 1800.74 1468.77 Q1798.41 1466.67 1794.4 1466.67 Q1792.53 1466.67 1790.65 1467.08 Q1788.8 1467.5 1786.85 1468.38 L1786.85 1451.02 Z" fill="#000000" fill-rule="evenodd" fill-opacity="1" /><path clip-path="url(#clip990)" d="M1826.97 1454.1 Q1823.36 1454.1 1821.53 1457.66 Q1819.72 1461.2 1819.72 1468.33 Q1819.72 1475.44 1821.53 1479.01 Q1823.36 1482.55 1826.97 1482.55 Q1830.6 1482.55 1832.41 1479.01 Q1834.24 1475.44 1834.24 1468.33 Q1834.24 1461.2 1832.41 1457.66 Q1830.6 1454.1 1826.97 1454.1 M1826.97 1450.39 Q1832.78 1450.39 1835.84 1455 Q1838.91 1459.58 1838.91 1468.33 Q1838.91 1477.06 1835.84 1481.67 Q1832.78 1486.25 1826.97 1486.25 Q1821.16 1486.25 1818.08 1481.67 Q1815.03 1477.06 1815.03 1468.33 Q1815.03 1459.58 1818.08 1455 Q1821.16 1450.39 1826.97 1450.39 Z" fill="#000000" fill-rule="evenodd" fill-opacity="1" /><path clip-path="url(#clip990)" d="M2237.76 1481.64 L2245.4 1481.64 L2245.4 1455.28 L2237.09 1456.95 L2237.09 1452.69 L2245.35 1451.02 L2250.03 1451.02 L2250.03 1481.64 L2257.66 1481.64 L2257.66 1485.58 L2237.76 1485.58 L2237.76 1481.64 Z" fill="#000000" fill-rule="evenodd" fill-opacity="1" /><path clip-path="url(#clip990)" d="M2277.11 1454.1 Q2273.5 1454.1 2271.67 1457.66 Q2269.86 1461.2 2269.86 1468.33 Q2269.86 1475.44 2271.67 1479.01 Q2273.5 1482.55 2277.11 1482.55 Q2280.74 1482.55 2282.55 1479.01 Q2284.38 1475.44 2284.38 1468.33 Q2284.38 1461.2 2282.55 1457.66 Q2280.74 1454.1 2277.11 1454.1 M2277.11 1450.39 Q2282.92 1450.39 2285.97 1455 Q2289.05 1459.58 2289.05 1468.33 Q2289.05 1477.06 2285.97 1481.67 Q2282.92 1486.25 2277.11 1486.25 Q2271.3 1486.25 2268.22 1481.67 Q2265.16 1477.06 2265.16 1468.33 Q2265.16 1459.58 2268.22 1455 Q2271.3 1450.39 2277.11 1450.39 Z" fill="#000000" fill-rule="evenodd" fill-opacity="1" /><path clip-path="url(#clip990)" d="M2307.27 1454.1 Q2303.66 1454.1 2301.83 1457.66 Q2300.02 1461.2 2300.02 1468.33 Q2300.02 1475.44 2301.83 1479.01 Q2303.66 1482.55 2307.27 1482.55 Q2310.9 1482.55 2312.71 1479.01 Q2314.54 1475.44 2314.54 1468.33 Q2314.54 1461.2 2312.71 1457.66 Q2310.9 1454.1 2307.27 1454.1 M2307.27 1450.39 Q2313.08 1450.39 2316.14 1455 Q2319.21 1459.58 2319.21 1468.33 Q2319.21 1477.06 2316.14 1481.67 Q2313.08 1486.25 2307.27 1486.25 Q2301.46 1486.25 2298.38 1481.67 Q2295.33 1477.06 2295.33 1468.33 Q2295.33 1459.58 2298.38 1455 Q2301.46 1450.39 2307.27 1450.39 Z" fill="#000000" fill-rule="evenodd" fill-opacity="1" /><path clip-path="url(#clip990)" d="M2337.43 1454.1 Q2333.82 1454.1 2331.99 1457.66 Q2330.19 1461.2 2330.19 1468.33 Q2330.19 1475.44 2331.99 1479.01 Q2333.82 1482.55 2337.43 1482.55 Q2341.07 1482.55 2342.87 1479.01 Q2344.7 1475.44 2344.7 1468.33 Q2344.7 1461.2 2342.87 1457.66 Q2341.07 1454.1 2337.43 1454.1 M2337.43 1450.39 Q2343.24 1450.39 2346.3 1455 Q2349.38 1459.58 2349.38 1468.33 Q2349.38 1477.06 2346.3 1481.67 Q2343.24 1486.25 2337.43 1486.25 Q2331.62 1486.25 2328.54 1481.67 Q2325.49 1477.06 2325.49 1468.33 Q2325.49 1459.58 2328.54 1455 Q2331.62 1450.39 2337.43 1450.39 Z" fill="#000000" fill-rule="evenodd" fill-opacity="1" /><path clip-path="url(#clip990)" d="M992.412 1520.52 L1001.07 1520.52 L1022.14 1560.28 L1022.14 1520.52 L1028.38 1520.52 L1028.38 1568.04 L1019.72 1568.04 L998.651 1528.29 L998.651 1568.04 L992.412 1568.04 L992.412 1520.52 Z" fill="#000000" fill-rule="evenodd" fill-opacity="1" /><path clip-path="url(#clip990)" d="M1040.31 1553.98 L1040.31 1532.4 L1046.17 1532.4 L1046.17 1553.75 Q1046.17 1558.81 1048.14 1561.36 Q1050.12 1563.87 1054.06 1563.87 Q1058.81 1563.87 1061.54 1560.85 Q1064.31 1557.83 1064.31 1552.61 L1064.31 1532.4 L1070.17 1532.4 L1070.17 1568.04 L1064.31 1568.04 L1064.31 1562.57 Q1062.18 1565.82 1059.35 1567.41 Q1056.55 1568.97 1052.82 1568.97 Q1046.68 1568.97 1043.5 1565.15 Q1040.31 1561.33 1040.31 1553.98 M1055.05 1531.54 L1055.05 1531.54 Z" fill="#000000" fill-rule="evenodd" fill-opacity="1" /><path clip-path="url(#clip990)" d="M1109.99 1539.24 Q1112.18 1535.29 1115.24 1533.41 Q1118.29 1531.54 1122.43 1531.54 Q1128 1531.54 1131.03 1535.45 Q1134.05 1539.33 1134.05 1546.53 L1134.05 1568.04 L1128.16 1568.04 L1128.16 1546.72 Q1128.16 1541.59 1126.35 1539.11 Q1124.53 1536.63 1120.81 1536.63 Q1116.26 1536.63 1113.62 1539.65 Q1110.97 1542.68 1110.97 1547.9 L1110.97 1568.04 L1105.09 1568.04 L1105.09 1546.72 Q1105.09 1541.56 1103.27 1539.11 Q1101.46 1536.63 1097.67 1536.63 Q1093.18 1536.63 1090.54 1539.68 Q1087.9 1542.71 1087.9 1547.9 L1087.9 1568.04 L1082.01 1568.04 L1082.01 1532.4 L1087.9 1532.4 L1087.9 1537.93 Q1089.9 1534.66 1092.7 1533.1 Q1095.5 1531.54 1099.36 1531.54 Q1103.24 1531.54 1105.94 1533.51 Q1108.68 1535.48 1109.99 1539.24 Z" fill="#000000" fill-rule="evenodd" fill-opacity="1" /><path clip-path="url(#clip990)" d="M1171.32 1550.25 Q1171.32 1543.79 1168.65 1540.13 Q1166.01 1536.44 1161.36 1536.44 Q1156.71 1536.44 1154.04 1540.13 Q1151.4 1543.79 1151.4 1550.25 Q1151.4 1556.71 1154.04 1560.4 Q1156.71 1564.07 1161.36 1564.07 Q1166.01 1564.07 1168.65 1560.4 Q1171.32 1556.71 1171.32 1550.25 M1151.4 1537.81 Q1153.24 1534.62 1156.04 1533.1 Q1158.88 1531.54 1162.79 1531.54 Q1169.28 1531.54 1173.33 1536.69 Q1177.4 1541.85 1177.4 1550.25 Q1177.4 1558.65 1173.33 1563.81 Q1169.28 1568.97 1162.79 1568.97 Q1158.88 1568.97 1156.04 1567.44 Q1153.24 1565.88 1151.4 1562.7 L1151.4 1568.04 L1145.51 1568.04 L1145.51 1518.52 L1151.4 1518.52 L1151.4 1537.81 Z" fill="#000000" fill-rule="evenodd" fill-opacity="1" /><path clip-path="url(#clip990)" d="M1217.6 1548.76 L1217.6 1551.62 L1190.67 1551.62 Q1191.05 1557.67 1194.3 1560.85 Q1197.58 1564 1203.4 1564 Q1206.78 1564 1209.93 1563.17 Q1213.11 1562.35 1216.23 1560.69 L1216.23 1566.23 Q1213.08 1567.57 1209.77 1568.27 Q1206.46 1568.97 1203.05 1568.97 Q1194.52 1568.97 1189.53 1564 Q1184.56 1559.04 1184.56 1550.57 Q1184.56 1541.82 1189.27 1536.69 Q1194.01 1531.54 1202.03 1531.54 Q1209.23 1531.54 1213.4 1536.18 Q1217.6 1540.8 1217.6 1548.76 M1211.74 1547.04 Q1211.68 1542.23 1209.04 1539.37 Q1206.43 1536.5 1202.1 1536.5 Q1197.2 1536.5 1194.24 1539.27 Q1191.31 1542.04 1190.86 1547.07 L1211.74 1547.04 Z" fill="#000000" fill-rule="evenodd" fill-opacity="1" /><path clip-path="url(#clip990)" d="M1247.87 1537.87 Q1246.88 1537.3 1245.7 1537.04 Q1244.56 1536.76 1243.16 1536.76 Q1238.19 1536.76 1235.52 1540 Q1232.88 1543.22 1232.88 1549.27 L1232.88 1568.04 L1226.99 1568.04 L1226.99 1532.4 L1232.88 1532.4 L1232.88 1537.93 Q1234.72 1534.69 1237.68 1533.13 Q1240.64 1531.54 1244.88 1531.54 Q1245.48 1531.54 1246.21 1531.63 Q1246.94 1531.7 1247.84 1531.85 L1247.87 1537.87 Z" fill="#000000" fill-rule="evenodd" fill-opacity="1" /><path clip-path="url(#clip990)" d="M1288.54 1536.5 Q1283.83 1536.5 1281.1 1540.19 Q1278.36 1543.85 1278.36 1550.25 Q1278.36 1556.65 1281.07 1560.34 Q1283.8 1564 1288.54 1564 Q1293.22 1564 1295.96 1560.31 Q1298.7 1556.62 1298.7 1550.25 Q1298.7 1543.92 1295.96 1540.23 Q1293.22 1536.5 1288.54 1536.5 M1288.54 1531.54 Q1296.18 1531.54 1300.54 1536.5 Q1304.9 1541.47 1304.9 1550.25 Q1304.9 1559 1300.54 1564 Q1296.18 1568.97 1288.54 1568.97 Q1280.87 1568.97 1276.51 1564 Q1272.19 1559 1272.19 1550.25 Q1272.19 1541.47 1276.51 1536.5 Q1280.87 1531.54 1288.54 1531.54 Z" fill="#000000" fill-rule="evenodd" fill-opacity="1" /><path clip-path="url(#clip990)" d="M1332.66 1518.52 L1332.66 1523.39 L1327.06 1523.39 Q1323.91 1523.39 1322.67 1524.66 Q1321.46 1525.93 1321.46 1529.24 L1321.46 1532.4 L1331.1 1532.4 L1331.1 1536.95 L1321.46 1536.95 L1321.46 1568.04 L1315.57 1568.04 L1315.57 1536.95 L1309.97 1536.95 L1309.97 1532.4 L1315.57 1532.4 L1315.57 1529.91 Q1315.57 1523.96 1318.34 1521.26 Q1321.11 1518.52 1327.12 1518.52 L1332.66 1518.52 Z" fill="#000000" fill-rule="evenodd" fill-opacity="1" /><path clip-path="url(#clip990)" d="M1364.97 1525.81 L1364.97 1543.66 L1373.05 1543.66 Q1377.54 1543.66 1379.99 1541.34 Q1382.44 1539.02 1382.44 1534.72 Q1382.44 1530.45 1379.99 1528.13 Q1377.54 1525.81 1373.05 1525.81 L1364.97 1525.81 M1358.54 1520.52 L1373.05 1520.52 Q1381.04 1520.52 1385.11 1524.15 Q1389.22 1527.75 1389.22 1534.72 Q1389.22 1541.75 1385.11 1545.35 Q1381.04 1548.95 1373.05 1548.95 L1364.97 1548.95 L1364.97 1568.04 L1358.54 1568.04 L1358.54 1520.52 Z" fill="#000000" fill-rule="evenodd" fill-opacity="1" /><path clip-path="url(#clip990)" d="M1410.86 1550.12 Q1403.76 1550.12 1401.03 1551.75 Q1398.29 1553.37 1398.29 1557.29 Q1398.29 1560.4 1400.33 1562.25 Q1402.4 1564.07 1405.93 1564.07 Q1410.8 1564.07 1413.73 1560.63 Q1416.69 1557.16 1416.69 1551.43 L1416.69 1550.12 L1410.86 1550.12 M1422.54 1547.71 L1422.54 1568.04 L1416.69 1568.04 L1416.69 1562.63 Q1414.68 1565.88 1411.69 1567.44 Q1408.7 1568.97 1404.37 1568.97 Q1398.89 1568.97 1395.65 1565.91 Q1392.43 1562.82 1392.43 1557.67 Q1392.43 1551.65 1396.44 1548.6 Q1400.49 1545.54 1408.47 1545.54 L1416.69 1545.54 L1416.69 1544.97 Q1416.69 1540.93 1414.01 1538.73 Q1411.37 1536.5 1406.57 1536.5 Q1403.51 1536.5 1400.61 1537.23 Q1397.72 1537.97 1395.04 1539.43 L1395.04 1534.02 Q1398.26 1532.78 1401.28 1532.17 Q1404.31 1531.54 1407.17 1531.54 Q1414.9 1531.54 1418.72 1535.55 Q1422.54 1539.56 1422.54 1547.71 Z" fill="#000000" fill-rule="evenodd" fill-opacity="1" /><path clip-path="url(#clip990)" d="M1440.4 1522.27 L1440.4 1532.4 L1452.46 1532.4 L1452.46 1536.95 L1440.4 1536.95 L1440.4 1556.3 Q1440.4 1560.66 1441.58 1561.9 Q1442.79 1563.14 1446.45 1563.14 L1452.46 1563.14 L1452.46 1568.04 L1446.45 1568.04 Q1439.67 1568.04 1437.09 1565.53 Q1434.51 1562.98 1434.51 1556.3 L1434.51 1536.95 L1430.21 1536.95 L1430.21 1532.4 L1434.51 1532.4 L1434.51 1522.27 L1440.4 1522.27 Z" fill="#000000" fill-rule="evenodd" fill-opacity="1" /><path clip-path="url(#clip990)" d="M1460.16 1532.4 L1466.02 1532.4 L1466.02 1568.04 L1460.16 1568.04 L1460.16 1532.4 M1460.16 1518.52 L1466.02 1518.52 L1466.02 1525.93 L1460.16 1525.93 L1460.16 1518.52 Z" fill="#000000" fill-rule="evenodd" fill-opacity="1" /><path clip-path="url(#clip990)" d="M1508.77 1548.76 L1508.77 1551.62 L1481.84 1551.62 Q1482.22 1557.67 1485.47 1560.85 Q1488.75 1564 1494.57 1564 Q1497.94 1564 1501.1 1563.17 Q1504.28 1562.35 1507.4 1560.69 L1507.4 1566.23 Q1504.25 1567.57 1500.94 1568.27 Q1497.63 1568.97 1494.22 1568.97 Q1485.69 1568.97 1480.69 1564 Q1475.73 1559.04 1475.73 1550.57 Q1475.73 1541.82 1480.44 1536.69 Q1485.18 1531.54 1493.2 1531.54 Q1500.4 1531.54 1504.57 1536.18 Q1508.77 1540.8 1508.77 1548.76 M1502.91 1547.04 Q1502.85 1542.23 1500.2 1539.37 Q1497.59 1536.5 1493.27 1536.5 Q1488.36 1536.5 1485.4 1539.27 Q1482.48 1542.04 1482.03 1547.07 L1502.91 1547.04 Z" fill="#000000" fill-rule="evenodd" fill-opacity="1" /><path clip-path="url(#clip990)" d="M1548.01 1546.53 L1548.01 1568.04 L1542.15 1568.04 L1542.15 1546.72 Q1542.15 1541.66 1540.18 1539.14 Q1538.21 1536.63 1534.26 1536.63 Q1529.52 1536.63 1526.78 1539.65 Q1524.04 1542.68 1524.04 1547.9 L1524.04 1568.04 L1518.16 1568.04 L1518.16 1532.4 L1524.04 1532.4 L1524.04 1537.93 Q1526.14 1534.72 1528.98 1533.13 Q1531.84 1531.54 1535.57 1531.54 Q1541.71 1531.54 1544.86 1535.36 Q1548.01 1539.14 1548.01 1546.53 Z" fill="#000000" fill-rule="evenodd" fill-opacity="1" /><path clip-path="url(#clip990)" d="M1565.48 1522.27 L1565.48 1532.4 L1577.55 1532.4 L1577.55 1536.95 L1565.48 1536.95 L1565.48 1556.3 Q1565.48 1560.66 1566.66 1561.9 Q1567.87 1563.14 1571.53 1563.14 L1577.55 1563.14 L1577.55 1568.04 L1571.53 1568.04 Q1564.75 1568.04 1562.17 1565.53 Q1559.6 1562.98 1559.6 1556.3 L1559.6 1536.95 L1555.3 1536.95 L1555.3 1532.4 L1559.6 1532.4 L1559.6 1522.27 L1565.48 1522.27 Z" fill="#000000" fill-rule="evenodd" fill-opacity="1" /><path clip-path="url(#clip990)" d="M1607.98 1533.45 L1607.98 1538.98 Q1605.49 1537.71 1602.82 1537.07 Q1600.15 1536.44 1597.28 1536.44 Q1592.92 1536.44 1590.72 1537.77 Q1588.56 1539.11 1588.56 1541.79 Q1588.56 1543.82 1590.12 1545 Q1591.68 1546.15 1596.39 1547.2 L1598.4 1547.64 Q1604.63 1548.98 1607.24 1551.43 Q1609.89 1553.85 1609.89 1558.21 Q1609.89 1563.17 1605.94 1566.07 Q1602.02 1568.97 1595.15 1568.97 Q1592.28 1568.97 1589.17 1568.39 Q1586.08 1567.85 1582.64 1566.74 L1582.64 1560.69 Q1585.89 1562.38 1589.04 1563.24 Q1592.19 1564.07 1595.28 1564.07 Q1599.41 1564.07 1601.64 1562.66 Q1603.87 1561.23 1603.87 1558.65 Q1603.87 1556.27 1602.25 1554.99 Q1600.66 1553.72 1595.21 1552.54 L1593.18 1552.07 Q1587.73 1550.92 1585.31 1548.56 Q1582.9 1546.18 1582.9 1542.04 Q1582.9 1537.01 1586.46 1534.27 Q1590.02 1531.54 1596.58 1531.54 Q1599.83 1531.54 1602.69 1532.01 Q1605.56 1532.49 1607.98 1533.45 Z" fill="#000000" fill-rule="evenodd" fill-opacity="1" /><polyline clip-path="url(#clip992)" style="stroke:#000000; stroke-linecap:round; stroke-linejoin:round; stroke-width:2; stroke-opacity:0.1; fill:none" points="249.542,1384.24 2352.76,1384.24 "/>
<polyline clip-path="url(#clip992)" style="stroke:#000000; stroke-linecap:round; stroke-linejoin:round; stroke-width:2; stroke-opacity:0.1; fill:none" points="249.542,1059.73 2352.76,1059.73 "/>
<polyline clip-path="url(#clip992)" style="stroke:#000000; stroke-linecap:round; stroke-linejoin:round; stroke-width:2; stroke-opacity:0.1; fill:none" points="249.542,735.212 2352.76,735.212 "/>
<polyline clip-path="url(#clip992)" style="stroke:#000000; stroke-linecap:round; stroke-linejoin:round; stroke-width:2; stroke-opacity:0.1; fill:none" points="249.542,410.699 2352.76,410.699 "/>
<polyline clip-path="url(#clip992)" style="stroke:#000000; stroke-linecap:round; stroke-linejoin:round; stroke-width:2; stroke-opacity:0.1; fill:none" points="249.542,86.1857 2352.76,86.1857 "/>
<polyline clip-path="url(#clip990)" style="stroke:#000000; stroke-linecap:round; stroke-linejoin:round; stroke-width:4; stroke-opacity:1; fill:none" points="249.542,1423.18 249.542,47.2441 "/>
<polyline clip-path="url(#clip990)" style="stroke:#000000; stroke-linecap:round; stroke-linejoin:round; stroke-width:4; stroke-opacity:1; fill:none" points="249.542,1384.24 268.44,1384.24 "/>
<polyline clip-path="url(#clip990)" style="stroke:#000000; stroke-linecap:round; stroke-linejoin:round; stroke-width:4; stroke-opacity:1; fill:none" points="249.542,1059.73 268.44,1059.73 "/>
<polyline clip-path="url(#clip990)" style="stroke:#000000; stroke-linecap:round; stroke-linejoin:round; stroke-width:4; stroke-opacity:1; fill:none" points="249.542,735.212 268.44,735.212 "/>
<polyline clip-path="url(#clip990)" style="stroke:#000000; stroke-linecap:round; stroke-linejoin:round; stroke-width:4; stroke-opacity:1; fill:none" points="249.542,410.699 268.44,410.699 "/>
<polyline clip-path="url(#clip990)" style="stroke:#000000; stroke-linecap:round; stroke-linejoin:round; stroke-width:4; stroke-opacity:1; fill:none" points="249.542,86.1857 268.44,86.1857 "/>
<path clip-path="url(#clip990)" d="M126.205 1370.04 Q122.593 1370.04 120.765 1373.6 Q118.959 1377.14 118.959 1384.27 Q118.959 1391.38 120.765 1394.94 Q122.593 1398.49 126.205 1398.49 Q129.839 1398.49 131.644 1394.94 Q133.473 1391.38 133.473 1384.27 Q133.473 1377.14 131.644 1373.6 Q129.839 1370.04 126.205 1370.04 M126.205 1366.33 Q132.015 1366.33 135.07 1370.94 Q138.149 1375.52 138.149 1384.27 Q138.149 1393 135.07 1397.61 Q132.015 1402.19 126.205 1402.19 Q120.394 1402.19 117.316 1397.61 Q114.26 1393 114.26 1384.27 Q114.26 1375.52 117.316 1370.94 Q120.394 1366.33 126.205 1366.33 Z" fill="#000000" fill-rule="evenodd" fill-opacity="1" /><path clip-path="url(#clip990)" d="M146.366 1395.64 L151.251 1395.64 L151.251 1401.52 L146.366 1401.52 L146.366 1395.64 Z" fill="#000000" fill-rule="evenodd" fill-opacity="1" /><path clip-path="url(#clip990)" d="M171.436 1370.04 Q167.825 1370.04 165.996 1373.6 Q164.19 1377.14 164.19 1384.27 Q164.19 1391.38 165.996 1394.94 Q167.825 1398.49 171.436 1398.49 Q175.07 1398.49 176.876 1394.94 Q178.704 1391.38 178.704 1384.27 Q178.704 1377.14 176.876 1373.6 Q175.07 1370.04 171.436 1370.04 M171.436 1366.33 Q177.246 1366.33 180.301 1370.94 Q183.38 1375.52 183.38 1384.27 Q183.38 1393 180.301 1397.61 Q177.246 1402.19 171.436 1402.19 Q165.626 1402.19 162.547 1397.61 Q159.491 1393 159.491 1384.27 Q159.491 1375.52 162.547 1370.94 Q165.626 1366.33 171.436 1366.33 Z" fill="#000000" fill-rule="evenodd" fill-opacity="1" /><path clip-path="url(#clip990)" d="M201.598 1370.04 Q197.987 1370.04 196.158 1373.6 Q194.352 1377.14 194.352 1384.27 Q194.352 1391.38 196.158 1394.94 Q197.987 1398.49 201.598 1398.49 Q205.232 1398.49 207.037 1394.94 Q208.866 1391.38 208.866 1384.27 Q208.866 1377.14 207.037 1373.6 Q205.232 1370.04 201.598 1370.04 M201.598 1366.33 Q207.408 1366.33 210.463 1370.94 Q213.542 1375.52 213.542 1384.27 Q213.542 1393 210.463 1397.61 Q207.408 1402.19 201.598 1402.19 Q195.787 1402.19 192.709 1397.61 Q189.653 1393 189.653 1384.27 Q189.653 1375.52 192.709 1370.94 Q195.787 1366.33 201.598 1366.33 Z" fill="#000000" fill-rule="evenodd" fill-opacity="1" /><path clip-path="url(#clip990)" d="M127.2 1045.52 Q123.589 1045.52 121.76 1049.09 Q119.955 1052.63 119.955 1059.76 Q119.955 1066.87 121.76 1070.43 Q123.589 1073.97 127.2 1073.97 Q130.834 1073.97 132.64 1070.43 Q134.468 1066.87 134.468 1059.76 Q134.468 1052.63 132.64 1049.09 Q130.834 1045.52 127.2 1045.52 M127.2 1041.82 Q133.01 1041.82 136.066 1046.43 Q139.144 1051.01 139.144 1059.76 Q139.144 1068.49 136.066 1073.09 Q133.01 1077.68 127.2 1077.68 Q121.39 1077.68 118.311 1073.09 Q115.256 1068.49 115.256 1059.76 Q115.256 1051.01 118.311 1046.43 Q121.39 1041.82 127.2 1041.82 Z" fill="#000000" fill-rule="evenodd" fill-opacity="1" /><path clip-path="url(#clip990)" d="M147.362 1071.13 L152.246 1071.13 L152.246 1077.01 L147.362 1077.01 L147.362 1071.13 Z" fill="#000000" fill-rule="evenodd" fill-opacity="1" /><path clip-path="url(#clip990)" d="M166.459 1073.07 L182.778 1073.07 L182.778 1077.01 L160.834 1077.01 L160.834 1073.07 Q163.496 1070.32 168.079 1065.69 Q172.686 1061.03 173.866 1059.69 Q176.112 1057.17 176.991 1055.43 Q177.894 1053.67 177.894 1051.98 Q177.894 1049.23 175.95 1047.49 Q174.028 1045.76 170.927 1045.76 Q168.727 1045.76 166.274 1046.52 Q163.843 1047.28 161.065 1048.83 L161.065 1044.11 Q163.89 1042.98 166.343 1042.4 Q168.797 1041.82 170.834 1041.82 Q176.204 1041.82 179.399 1044.51 Q182.593 1047.19 182.593 1051.68 Q182.593 1053.81 181.783 1055.73 Q180.996 1057.63 178.889 1060.22 Q178.311 1060.89 175.209 1064.11 Q172.107 1067.31 166.459 1073.07 Z" fill="#000000" fill-rule="evenodd" fill-opacity="1" /><path clip-path="url(#clip990)" d="M192.639 1042.45 L210.996 1042.45 L210.996 1046.38 L196.922 1046.38 L196.922 1054.85 Q197.94 1054.51 198.959 1054.34 Q199.977 1054.16 200.996 1054.16 Q206.783 1054.16 210.162 1057.33 Q213.542 1060.5 213.542 1065.92 Q213.542 1071.5 210.07 1074.6 Q206.598 1077.68 200.278 1077.68 Q198.102 1077.68 195.834 1077.31 Q193.588 1076.94 191.181 1076.19 L191.181 1071.5 Q193.264 1072.63 195.487 1073.19 Q197.709 1073.74 200.186 1073.74 Q204.19 1073.74 206.528 1071.63 Q208.866 1069.53 208.866 1065.92 Q208.866 1062.31 206.528 1060.2 Q204.19 1058.09 200.186 1058.09 Q198.311 1058.09 196.436 1058.51 Q194.584 1058.93 192.639 1059.81 L192.639 1042.45 Z" fill="#000000" fill-rule="evenodd" fill-opacity="1" /><path clip-path="url(#clip990)" d="M126.205 721.011 Q122.593 721.011 120.765 724.575 Q118.959 728.117 118.959 735.247 Q118.959 742.353 120.765 745.918 Q122.593 749.46 126.205 749.46 Q129.839 749.46 131.644 745.918 Q133.473 742.353 133.473 735.247 Q133.473 728.117 131.644 724.575 Q129.839 721.011 126.205 721.011 M126.205 717.307 Q132.015 717.307 135.07 721.913 Q138.149 726.497 138.149 735.247 Q138.149 743.973 135.07 748.58 Q132.015 753.163 126.205 753.163 Q120.394 753.163 117.316 748.58 Q114.26 743.973 114.26 735.247 Q114.26 726.497 117.316 721.913 Q120.394 717.307 126.205 717.307 Z" fill="#000000" fill-rule="evenodd" fill-opacity="1" /><path clip-path="url(#clip990)" d="M146.366 746.612 L151.251 746.612 L151.251 752.492 L146.366 752.492 L146.366 746.612 Z" fill="#000000" fill-rule="evenodd" fill-opacity="1" /><path clip-path="url(#clip990)" d="M161.482 717.932 L179.839 717.932 L179.839 721.867 L165.765 721.867 L165.765 730.339 Q166.783 729.992 167.802 729.83 Q168.82 729.645 169.839 729.645 Q175.626 729.645 179.005 732.816 Q182.385 735.987 182.385 741.404 Q182.385 746.983 178.913 750.085 Q175.44 753.163 169.121 753.163 Q166.945 753.163 164.677 752.793 Q162.431 752.423 160.024 751.682 L160.024 746.983 Q162.107 748.117 164.329 748.673 Q166.552 749.228 169.028 749.228 Q173.033 749.228 175.371 747.122 Q177.709 745.015 177.709 741.404 Q177.709 737.793 175.371 735.687 Q173.033 733.58 169.028 733.58 Q167.153 733.58 165.278 733.997 Q163.427 734.413 161.482 735.293 L161.482 717.932 Z" fill="#000000" fill-rule="evenodd" fill-opacity="1" /><path clip-path="url(#clip990)" d="M201.598 721.011 Q197.987 721.011 196.158 724.575 Q194.352 728.117 194.352 735.247 Q194.352 742.353 196.158 745.918 Q197.987 749.46 201.598 749.46 Q205.232 749.46 207.037 745.918 Q208.866 742.353 208.866 735.247 Q208.866 728.117 207.037 724.575 Q205.232 721.011 201.598 721.011 M201.598 717.307 Q207.408 717.307 210.463 721.913 Q213.542 726.497 213.542 735.247 Q213.542 743.973 210.463 748.58 Q207.408 753.163 201.598 753.163 Q195.787 753.163 192.709 748.58 Q189.653 743.973 189.653 735.247 Q189.653 726.497 192.709 721.913 Q195.787 717.307 201.598 717.307 Z" fill="#000000" fill-rule="evenodd" fill-opacity="1" /><path clip-path="url(#clip990)" d="M127.2 396.498 Q123.589 396.498 121.76 400.062 Q119.955 403.604 119.955 410.734 Q119.955 417.84 121.76 421.405 Q123.589 424.946 127.2 424.946 Q130.834 424.946 132.64 421.405 Q134.468 417.84 134.468 410.734 Q134.468 403.604 132.64 400.062 Q130.834 396.498 127.2 396.498 M127.2 392.794 Q133.01 392.794 136.066 397.4 Q139.144 401.984 139.144 410.734 Q139.144 419.46 136.066 424.067 Q133.01 428.65 127.2 428.65 Q121.39 428.65 118.311 424.067 Q115.256 419.46 115.256 410.734 Q115.256 401.984 118.311 397.4 Q121.39 392.794 127.2 392.794 Z" fill="#000000" fill-rule="evenodd" fill-opacity="1" /><path clip-path="url(#clip990)" d="M147.362 422.099 L152.246 422.099 L152.246 427.979 L147.362 427.979 L147.362 422.099 Z" fill="#000000" fill-rule="evenodd" fill-opacity="1" /><path clip-path="url(#clip990)" d="M161.251 393.419 L183.473 393.419 L183.473 395.41 L170.927 427.979 L166.042 427.979 L177.848 397.354 L161.251 397.354 L161.251 393.419 Z" fill="#000000" fill-rule="evenodd" fill-opacity="1" /><path clip-path="url(#clip990)" d="M192.639 393.419 L210.996 393.419 L210.996 397.354 L196.922 397.354 L196.922 405.826 Q197.94 405.479 198.959 405.317 Q199.977 405.132 200.996 405.132 Q206.783 405.132 210.162 408.303 Q213.542 411.474 213.542 416.891 Q213.542 422.47 210.07 425.571 Q206.598 428.65 200.278 428.65 Q198.102 428.65 195.834 428.28 Q193.588 427.909 191.181 427.169 L191.181 422.47 Q193.264 423.604 195.487 424.159 Q197.709 424.715 200.186 424.715 Q204.19 424.715 206.528 422.608 Q208.866 420.502 208.866 416.891 Q208.866 413.28 206.528 411.173 Q204.19 409.067 200.186 409.067 Q198.311 409.067 196.436 409.484 Q194.584 409.9 192.639 410.78 L192.639 393.419 Z" fill="#000000" fill-rule="evenodd" fill-opacity="1" /><path clip-path="url(#clip990)" d="M117.015 99.5305 L124.654 99.5305 L124.654 73.1649 L116.343 74.8316 L116.343 70.5723 L124.607 68.9057 L129.283 68.9057 L129.283 99.5305 L136.922 99.5305 L136.922 103.466 L117.015 103.466 L117.015 99.5305 Z" fill="#000000" fill-rule="evenodd" fill-opacity="1" /><path clip-path="url(#clip990)" d="M146.366 97.5861 L151.251 97.5861 L151.251 103.466 L146.366 103.466 L146.366 97.5861 Z" fill="#000000" fill-rule="evenodd" fill-opacity="1" /><path clip-path="url(#clip990)" d="M171.436 71.9844 Q167.825 71.9844 165.996 75.5492 Q164.19 79.0908 164.19 86.2204 Q164.19 93.3268 165.996 96.8916 Q167.825 100.433 171.436 100.433 Q175.07 100.433 176.876 96.8916 Q178.704 93.3268 178.704 86.2204 Q178.704 79.0908 176.876 75.5492 Q175.07 71.9844 171.436 71.9844 M171.436 68.2807 Q177.246 68.2807 180.301 72.8871 Q183.38 77.4704 183.38 86.2204 Q183.38 94.9472 180.301 99.5537 Q177.246 104.137 171.436 104.137 Q165.626 104.137 162.547 99.5537 Q159.491 94.9472 159.491 86.2204 Q159.491 77.4704 162.547 72.8871 Q165.626 68.2807 171.436 68.2807 Z" fill="#000000" fill-rule="evenodd" fill-opacity="1" /><path clip-path="url(#clip990)" d="M201.598 71.9844 Q197.987 71.9844 196.158 75.5492 Q194.352 79.0908 194.352 86.2204 Q194.352 93.3268 196.158 96.8916 Q197.987 100.433 201.598 100.433 Q205.232 100.433 207.037 96.8916 Q208.866 93.3268 208.866 86.2204 Q208.866 79.0908 207.037 75.5492 Q205.232 71.9844 201.598 71.9844 M201.598 68.2807 Q207.408 68.2807 210.463 72.8871 Q213.542 77.4704 213.542 86.2204 Q213.542 94.9472 210.463 99.5537 Q207.408 104.137 201.598 104.137 Q195.787 104.137 192.709 99.5537 Q189.653 94.9472 189.653 86.2204 Q189.653 77.4704 192.709 72.8871 Q195.787 68.2807 201.598 68.2807 Z" fill="#000000" fill-rule="evenodd" fill-opacity="1" /><path clip-path="url(#clip990)" d="M20.1444 1335.26 L26.9239 1335.26 Q23.9002 1338.51 22.4043 1342.2 Q20.9083 1345.86 20.9083 1350 Q20.9083 1358.14 25.9054 1362.47 Q30.8707 1366.8 40.2919 1366.8 Q49.6813 1366.8 54.6784 1362.47 Q59.6436 1358.14 59.6436 1350 Q59.6436 1345.86 58.1477 1342.2 Q56.6518 1338.51 53.6281 1335.26 L60.3439 1335.26 Q62.6355 1338.63 63.7814 1342.42 Q64.9272 1346.18 64.9272 1350.38 Q64.9272 1361.17 58.3387 1367.37 Q51.7183 1373.58 40.2919 1373.58 Q28.8336 1373.58 22.2451 1367.37 Q15.6248 1361.17 15.6248 1350.38 Q15.6248 1346.11 16.7706 1342.36 Q17.8846 1338.57 20.1444 1335.26 Z" fill="#000000" fill-rule="evenodd" fill-opacity="1" /><path clip-path="url(#clip990)" d="M32.4621 1311.77 Q32.4621 1316.48 36.1542 1319.22 Q39.8145 1321.96 46.212 1321.96 Q52.6095 1321.96 56.3017 1319.25 Q59.9619 1316.51 59.9619 1311.77 Q59.9619 1307.09 56.2698 1304.35 Q52.5777 1301.62 46.212 1301.62 Q39.8781 1301.62 36.186 1304.35 Q32.4621 1307.09 32.4621 1311.77 M27.4968 1311.77 Q27.4968 1304.13 32.4621 1299.77 Q37.4273 1295.41 46.212 1295.41 Q54.9649 1295.41 59.9619 1299.77 Q64.9272 1304.13 64.9272 1311.77 Q64.9272 1319.44 59.9619 1323.8 Q54.9649 1328.13 46.212 1328.13 Q37.4273 1328.13 32.4621 1323.8 Q27.4968 1319.44 27.4968 1311.77 Z" fill="#000000" fill-rule="evenodd" fill-opacity="1" /><path clip-path="url(#clip990)" d="M35.1993 1257.95 Q31.2526 1255.75 29.3747 1252.7 Q27.4968 1249.64 27.4968 1245.5 Q27.4968 1239.93 31.4117 1236.91 Q35.2948 1233.89 42.4881 1233.89 L64.0042 1233.89 L64.0042 1239.77 L42.679 1239.77 Q37.5546 1239.77 35.072 1241.59 Q32.5894 1243.4 32.5894 1247.13 Q32.5894 1251.68 35.6131 1254.32 Q38.6368 1256.96 43.8567 1256.96 L64.0042 1256.96 L64.0042 1262.85 L42.679 1262.85 Q37.5228 1262.85 35.072 1264.66 Q32.5894 1266.48 32.5894 1270.27 Q32.5894 1274.75 35.6449 1277.4 Q38.6686 1280.04 43.8567 1280.04 L64.0042 1280.04 L64.0042 1285.93 L28.3562 1285.93 L28.3562 1280.04 L33.8944 1280.04 Q30.616 1278.03 29.0564 1275.23 Q27.4968 1272.43 27.4968 1268.58 Q27.4968 1264.7 29.4702 1261.99 Q31.4436 1259.25 35.1993 1257.95 Z" fill="#000000" fill-rule="evenodd" fill-opacity="1" /><path clip-path="url(#clip990)" d="M58.657 1216.54 L77.5631 1216.54 L77.5631 1222.43 L28.3562 1222.43 L28.3562 1216.54 L33.7671 1216.54 Q30.5842 1214.69 29.0564 1211.89 Q27.4968 1209.06 27.4968 1205.14 Q27.4968 1198.65 32.6531 1194.61 Q37.8093 1190.54 46.212 1190.54 Q54.6147 1190.54 59.771 1194.61 Q64.9272 1198.65 64.9272 1205.14 Q64.9272 1209.06 63.3994 1211.89 Q61.8398 1214.69 58.657 1216.54 M46.212 1196.61 Q39.7508 1196.61 36.0905 1199.29 Q32.3984 1201.93 32.3984 1206.58 Q32.3984 1211.22 36.0905 1213.9 Q39.7508 1216.54 46.212 1216.54 Q52.6732 1216.54 56.3653 1213.9 Q60.0256 1211.22 60.0256 1206.58 Q60.0256 1201.93 56.3653 1199.29 Q52.6732 1196.61 46.212 1196.61 Z" fill="#000000" fill-rule="evenodd" fill-opacity="1" /><path clip-path="url(#clip990)" d="M14.479 1180.83 L14.479 1174.97 L64.0042 1174.97 L64.0042 1180.83 L14.479 1180.83 Z" fill="#000000" fill-rule="evenodd" fill-opacity="1" /><path clip-path="url(#clip990)" d="M44.7161 1132.23 L47.5806 1132.23 L47.5806 1159.15 Q53.6281 1158.77 56.8109 1155.52 Q59.9619 1152.25 59.9619 1146.42 Q59.9619 1143.05 59.1344 1139.9 Q58.3069 1136.71 56.6518 1133.59 L62.1899 1133.59 Q63.5267 1136.74 64.227 1140.05 Q64.9272 1143.37 64.9272 1146.77 Q64.9272 1155.3 59.9619 1160.3 Q54.9967 1165.26 46.5303 1165.26 Q37.7774 1165.26 32.6531 1160.55 Q27.4968 1155.81 27.4968 1147.79 Q27.4968 1140.6 32.1438 1136.43 Q36.7589 1132.23 44.7161 1132.23 M42.9973 1138.08 Q38.1912 1138.15 35.3266 1140.79 Q32.4621 1143.4 32.4621 1147.73 Q32.4621 1152.63 35.2312 1155.59 Q38.0002 1158.52 43.0292 1158.96 L42.9973 1138.08 Z" fill="#000000" fill-rule="evenodd" fill-opacity="1" /><path clip-path="url(#clip990)" d="M35.1993 1094.86 Q31.2526 1092.66 29.3747 1089.61 Q27.4968 1086.55 27.4968 1082.41 Q27.4968 1076.84 31.4117 1073.82 Q35.2948 1070.8 42.4881 1070.8 L64.0042 1070.8 L64.0042 1076.68 L42.679 1076.68 Q37.5546 1076.68 35.072 1078.5 Q32.5894 1080.31 32.5894 1084.04 Q32.5894 1088.59 35.6131 1091.23 Q38.6368 1093.87 43.8567 1093.87 L64.0042 1093.87 L64.0042 1099.76 L42.679 1099.76 Q37.5228 1099.76 35.072 1101.57 Q32.5894 1103.39 32.5894 1107.18 Q32.5894 1111.66 35.6449 1114.31 Q38.6686 1116.95 43.8567 1116.95 L64.0042 1116.95 L64.0042 1122.84 L28.3562 1122.84 L28.3562 1116.95 L33.8944 1116.95 Q30.616 1114.94 29.0564 1112.14 Q27.4968 1109.34 27.4968 1105.49 Q27.4968 1101.61 29.4702 1098.9 Q31.4436 1096.16 35.1993 1094.86 Z" fill="#000000" fill-rule="evenodd" fill-opacity="1" /><path clip-path="url(#clip990)" d="M44.7161 1028.62 L47.5806 1028.62 L47.5806 1055.55 Q53.6281 1055.17 56.8109 1051.92 Q59.9619 1048.64 59.9619 1042.82 Q59.9619 1039.45 59.1344 1036.29 Q58.3069 1033.11 56.6518 1029.99 L62.1899 1029.99 Q63.5267 1033.14 64.227 1036.45 Q64.9272 1039.76 64.9272 1043.17 Q64.9272 1051.7 59.9619 1056.7 Q54.9967 1061.66 46.5303 1061.66 Q37.7774 1061.66 32.6531 1056.95 Q27.4968 1052.21 27.4968 1044.19 Q27.4968 1036.99 32.1438 1032.82 Q36.7589 1028.62 44.7161 1028.62 M42.9973 1034.48 Q38.1912 1034.54 35.3266 1037.19 Q32.4621 1039.8 32.4621 1044.12 Q32.4621 1049.03 35.2312 1051.99 Q38.0002 1054.91 43.0292 1055.36 L42.9973 1034.48 Z" fill="#000000" fill-rule="evenodd" fill-opacity="1" /><path clip-path="url(#clip990)" d="M42.4881 989.379 L64.0042 989.379 L64.0042 995.235 L42.679 995.235 Q37.6183 995.235 35.1038 997.209 Q32.5894 999.182 32.5894 1003.13 Q32.5894 1007.87 35.6131 1010.61 Q38.6368 1013.35 43.8567 1013.35 L64.0042 1013.35 L64.0042 1019.23 L28.3562 1019.23 L28.3562 1013.35 L33.8944 1013.35 Q30.6797 1011.24 29.0883 1008.41 Q27.4968 1005.55 27.4968 1001.82 Q27.4968 995.681 31.3163 992.53 Q35.1038 989.379 42.4881 989.379 Z" fill="#000000" fill-rule="evenodd" fill-opacity="1" /><path clip-path="url(#clip990)" d="M18.2347 971.905 L28.3562 971.905 L28.3562 959.842 L32.9077 959.842 L32.9077 971.905 L52.2594 971.905 Q56.6199 971.905 57.8613 970.727 Q59.1026 969.518 59.1026 965.857 L59.1026 959.842 L64.0042 959.842 L64.0042 965.857 Q64.0042 972.637 61.4897 975.215 Q58.9434 977.793 52.2594 977.793 L32.9077 977.793 L32.9077 982.09 L28.3562 982.09 L28.3562 977.793 L18.2347 977.793 L18.2347 971.905 Z" fill="#000000" fill-rule="evenodd" fill-opacity="1" /><path clip-path="url(#clip990)" d="M46.0847 935.939 Q46.0847 943.036 47.7079 945.774 Q49.3312 948.511 53.2461 948.511 Q56.3653 948.511 58.2114 946.474 Q60.0256 944.405 60.0256 940.872 Q60.0256 936.002 56.5881 933.074 Q53.1188 930.114 47.3897 930.114 L46.0847 930.114 L46.0847 935.939 M43.6657 924.258 L64.0042 924.258 L64.0042 930.114 L58.5933 930.114 Q61.8398 932.119 63.3994 935.111 Q64.9272 938.103 64.9272 942.432 Q64.9272 947.906 61.8716 951.153 Q58.7843 954.367 53.6281 954.367 Q47.6125 954.367 44.5569 950.357 Q41.5014 946.315 41.5014 938.326 L41.5014 930.114 L40.9285 930.114 Q36.8862 930.114 34.6901 932.788 Q32.4621 935.429 32.4621 940.235 Q32.4621 943.291 33.1941 946.187 Q33.9262 949.084 35.3903 951.757 L29.9795 951.757 Q28.7381 948.543 28.1334 945.519 Q27.4968 942.495 27.4968 939.631 Q27.4968 931.896 31.5072 928.077 Q35.5176 924.258 43.6657 924.258 Z" fill="#000000" fill-rule="evenodd" fill-opacity="1" /><path clip-path="url(#clip990)" d="M33.8307 891.538 Q33.2578 892.524 33.0032 893.702 Q32.7167 894.848 32.7167 896.248 Q32.7167 901.214 35.9632 903.887 Q39.1779 906.529 45.2253 906.529 L64.0042 906.529 L64.0042 912.417 L28.3562 912.417 L28.3562 906.529 L33.8944 906.529 Q30.6479 904.683 29.0883 901.723 Q27.4968 898.763 27.4968 894.53 Q27.4968 893.925 27.5923 893.193 Q27.656 892.461 27.8151 891.57 L33.8307 891.538 Z" fill="#000000" fill-rule="evenodd" fill-opacity="1" /><path clip-path="url(#clip990)" d="M67.3143 870.563 Q73.68 873.045 75.6216 875.401 Q77.5631 877.756 77.5631 881.703 L77.5631 886.382 L72.6615 886.382 L72.6615 882.944 Q72.6615 880.525 71.5157 879.188 Q70.3699 877.852 66.1048 876.228 L63.4312 875.178 L28.3562 889.596 L28.3562 883.39 L56.238 872.25 L28.3562 861.11 L28.3562 854.903 L67.3143 870.563 Z" fill="#000000" fill-rule="evenodd" fill-opacity="1" /><path clip-path="url(#clip990)" d="M20.1444 790.259 L26.9239 790.259 Q23.9002 793.506 22.4043 797.198 Q20.9083 800.858 20.9083 804.996 Q20.9083 813.144 25.9054 817.473 Q30.8707 821.801 40.2919 821.801 Q49.6813 821.801 54.6784 817.473 Q59.6436 813.144 59.6436 804.996 Q59.6436 800.858 58.1477 797.198 Q56.6518 793.506 53.6281 790.259 L60.3439 790.259 Q62.6355 793.633 63.7814 797.421 Q64.9272 801.177 64.9272 805.378 Q64.9272 816.168 58.3387 822.374 Q51.7183 828.581 40.2919 828.581 Q28.8336 828.581 22.2451 822.374 Q15.6248 816.168 15.6248 805.378 Q15.6248 801.113 16.7706 797.357 Q17.8846 793.57 20.1444 790.259 Z" fill="#000000" fill-rule="evenodd" fill-opacity="1" /><path clip-path="url(#clip990)" d="M49.9359 781.188 L28.3562 781.188 L28.3562 775.332 L49.7131 775.332 Q54.7739 775.332 57.3202 773.358 Q59.8346 771.385 59.8346 767.438 Q59.8346 762.696 56.8109 759.959 Q53.7872 757.19 48.5673 757.19 L28.3562 757.19 L28.3562 751.333 L64.0042 751.333 L64.0042 757.19 L58.5296 757.19 Q61.7762 759.322 63.3676 762.155 Q64.9272 764.956 64.9272 768.68 Q64.9272 774.823 61.1078 778.005 Q57.2883 781.188 49.9359 781.188 M27.4968 766.452 L27.4968 766.452 Z" fill="#000000" fill-rule="evenodd" fill-opacity="1" /><path clip-path="url(#clip990)" d="M35.1993 711.516 Q31.2526 709.319 29.3747 706.264 Q27.4968 703.208 27.4968 699.071 Q27.4968 693.501 31.4117 690.477 Q35.2948 687.453 42.4881 687.453 L64.0042 687.453 L64.0042 693.342 L42.679 693.342 Q37.5546 693.342 35.072 695.156 Q32.5894 696.97 32.5894 700.694 Q32.5894 705.245 35.6131 707.887 Q38.6368 710.529 43.8567 710.529 L64.0042 710.529 L64.0042 716.417 L42.679 716.417 Q37.5228 716.417 35.072 718.231 Q32.5894 720.046 32.5894 723.833 Q32.5894 728.321 35.6449 730.963 Q38.6686 733.605 43.8567 733.605 L64.0042 733.605 L64.0042 739.493 L28.3562 739.493 L28.3562 733.605 L33.8944 733.605 Q30.616 731.599 29.0564 728.799 Q27.4968 725.998 27.4968 722.146 Q27.4968 718.263 29.4702 715.558 Q31.4436 712.821 35.1993 711.516 Z" fill="#000000" fill-rule="evenodd" fill-opacity="1" /><path clip-path="url(#clip990)" d="M49.9359 676.377 L28.3562 676.377 L28.3562 670.52 L49.7131 670.52 Q54.7739 670.52 57.3202 668.547 Q59.8346 666.574 59.8346 662.627 Q59.8346 657.885 56.8109 655.147 Q53.7872 652.378 48.5673 652.378 L28.3562 652.378 L28.3562 646.522 L64.0042 646.522 L64.0042 652.378 L58.5296 652.378 Q61.7762 654.511 63.3676 657.343 Q64.9272 660.144 64.9272 663.868 Q64.9272 670.011 61.1078 673.194 Q57.2883 676.377 49.9359 676.377 M27.4968 661.64 L27.4968 661.64 Z" fill="#000000" fill-rule="evenodd" fill-opacity="1" /><path clip-path="url(#clip990)" d="M14.479 634.459 L14.479 628.602 L64.0042 628.602 L64.0042 634.459 L14.479 634.459 Z" fill="#000000" fill-rule="evenodd" fill-opacity="1" /><path clip-path="url(#clip990)" d="M46.0847 600.148 Q46.0847 607.245 47.7079 609.983 Q49.3312 612.72 53.2461 612.72 Q56.3653 612.72 58.2114 610.683 Q60.0256 608.614 60.0256 605.081 Q60.0256 600.211 56.5881 597.283 Q53.1188 594.323 47.3897 594.323 L46.0847 594.323 L46.0847 600.148 M43.6657 588.467 L64.0042 588.467 L64.0042 594.323 L58.5933 594.323 Q61.8398 596.328 63.3994 599.32 Q64.9272 602.312 64.9272 606.641 Q64.9272 612.115 61.8716 615.362 Q58.7843 618.576 53.6281 618.576 Q47.6125 618.576 44.5569 614.566 Q41.5014 610.524 41.5014 602.535 L41.5014 594.323 L40.9285 594.323 Q36.8862 594.323 34.6901 596.997 Q32.4621 599.638 32.4621 604.444 Q32.4621 607.5 33.1941 610.396 Q33.9262 613.293 35.3903 615.966 L29.9795 615.966 Q28.7381 612.752 28.1334 609.728 Q27.4968 606.704 27.4968 603.84 Q27.4968 596.105 31.5072 592.286 Q35.5176 588.467 43.6657 588.467 Z" fill="#000000" fill-rule="evenodd" fill-opacity="1" /><path clip-path="url(#clip990)" d="M18.2347 570.611 L28.3562 570.611 L28.3562 558.548 L32.9077 558.548 L32.9077 570.611 L52.2594 570.611 Q56.6199 570.611 57.8613 569.433 Q59.1026 568.224 59.1026 564.563 L59.1026 558.548 L64.0042 558.548 L64.0042 564.563 Q64.0042 571.343 61.4897 573.921 Q58.9434 576.499 52.2594 576.499 L32.9077 576.499 L32.9077 580.796 L28.3562 580.796 L28.3562 576.499 L18.2347 576.499 L18.2347 570.611 Z" fill="#000000" fill-rule="evenodd" fill-opacity="1" /><path clip-path="url(#clip990)" d="M28.3562 550.845 L28.3562 544.989 L64.0042 544.989 L64.0042 550.845 L28.3562 550.845 M14.479 550.845 L14.479 544.989 L21.895 544.989 L21.895 550.845 L14.479 550.845 Z" fill="#000000" fill-rule="evenodd" fill-opacity="1" /><path clip-path="url(#clip990)" d="M28.3562 536.936 L28.3562 530.73 L58.275 519.59 L28.3562 508.45 L28.3562 502.243 L64.0042 515.611 L64.0042 523.568 L28.3562 536.936 Z" fill="#000000" fill-rule="evenodd" fill-opacity="1" /><path clip-path="url(#clip990)" d="M44.7161 463.667 L47.5806 463.667 L47.5806 490.594 Q53.6281 490.212 56.8109 486.965 Q59.9619 483.687 59.9619 477.862 Q59.9619 474.489 59.1344 471.338 Q58.3069 468.155 56.6518 465.035 L62.1899 465.035 Q63.5267 468.186 64.227 471.497 Q64.9272 474.807 64.9272 478.212 Q64.9272 486.743 59.9619 491.74 Q54.9967 496.705 46.5303 496.705 Q37.7774 496.705 32.6531 491.994 Q27.4968 487.252 27.4968 479.231 Q27.4968 472.038 32.1438 467.868 Q36.7589 463.667 44.7161 463.667 M42.9973 469.523 Q38.1912 469.587 35.3266 472.229 Q32.4621 474.839 32.4621 479.167 Q32.4621 484.069 35.2312 487.029 Q38.0002 489.957 43.0292 490.403 L42.9973 469.523 Z" fill="#000000" fill-rule="evenodd" fill-opacity="1" /><path clip-path="url(#clip990)" d="M21.7677 426.65 L39.6235 426.65 L39.6235 418.566 Q39.6235 414.078 37.3 411.627 Q34.9765 409.176 30.6797 409.176 Q26.4147 409.176 24.0912 411.627 Q21.7677 414.078 21.7677 418.566 L21.7677 426.65 M16.4842 433.08 L16.4842 418.566 Q16.4842 410.577 20.1126 406.503 Q23.7092 402.397 30.6797 402.397 Q37.7138 402.397 41.3104 406.503 Q44.907 410.577 44.907 418.566 L44.907 426.65 L64.0042 426.65 L64.0042 433.08 L16.4842 433.08 Z" fill="#000000" fill-rule="evenodd" fill-opacity="1" /><path clip-path="url(#clip990)" d="M33.8307 374.515 Q33.2578 375.502 33.0032 376.679 Q32.7167 377.825 32.7167 379.226 Q32.7167 384.191 35.9632 386.865 Q39.1779 389.506 45.2253 389.506 L64.0042 389.506 L64.0042 395.395 L28.3562 395.395 L28.3562 389.506 L33.8944 389.506 Q30.6479 387.66 29.0883 384.7 Q27.4968 381.74 27.4968 377.507 Q27.4968 376.902 27.5923 376.17 Q27.656 375.438 27.8151 374.547 L33.8307 374.515 Z" fill="#000000" fill-rule="evenodd" fill-opacity="1" /><path clip-path="url(#clip990)" d="M32.4621 355.991 Q32.4621 360.702 36.1542 363.439 Q39.8145 366.176 46.212 366.176 Q52.6095 366.176 56.3017 363.471 Q59.9619 360.733 59.9619 355.991 Q59.9619 351.312 56.2698 348.575 Q52.5777 345.838 46.212 345.838 Q39.8781 345.838 36.186 348.575 Q32.4621 351.312 32.4621 355.991 M27.4968 355.991 Q27.4968 348.352 32.4621 343.992 Q37.4273 339.631 46.212 339.631 Q54.9649 339.631 59.9619 343.992 Q64.9272 348.352 64.9272 355.991 Q64.9272 363.662 59.9619 368.022 Q54.9649 372.351 46.212 372.351 Q37.4273 372.351 32.4621 368.022 Q27.4968 363.662 27.4968 355.991 Z" fill="#000000" fill-rule="evenodd" fill-opacity="1" /><path clip-path="url(#clip990)" d="M46.212 304.333 Q39.7508 304.333 36.0905 307.007 Q32.3984 309.649 32.3984 314.296 Q32.3984 318.942 36.0905 321.616 Q39.7508 324.258 46.212 324.258 Q52.6732 324.258 56.3653 321.616 Q60.0256 318.942 60.0256 314.296 Q60.0256 309.649 56.3653 307.007 Q52.6732 304.333 46.212 304.333 M33.7671 324.258 Q30.5842 322.412 29.0564 319.611 Q27.4968 316.778 27.4968 312.863 Q27.4968 306.37 32.6531 302.328 Q37.8093 298.254 46.212 298.254 Q54.6147 298.254 59.771 302.328 Q64.9272 306.37 64.9272 312.863 Q64.9272 316.778 63.3994 319.611 Q61.8398 322.412 58.657 324.258 L64.0042 324.258 L64.0042 330.146 L14.479 330.146 L14.479 324.258 L33.7671 324.258 Z" fill="#000000" fill-rule="evenodd" fill-opacity="1" /><path clip-path="url(#clip990)" d="M46.0847 272.346 Q46.0847 279.443 47.7079 282.181 Q49.3312 284.918 53.2461 284.918 Q56.3653 284.918 58.2114 282.881 Q60.0256 280.812 60.0256 277.279 Q60.0256 272.409 56.5881 269.481 Q53.1188 266.521 47.3897 266.521 L46.0847 266.521 L46.0847 272.346 M43.6657 260.664 L64.0042 260.664 L64.0042 266.521 L58.5933 266.521 Q61.8398 268.526 63.3994 271.518 Q64.9272 274.51 64.9272 278.839 Q64.9272 284.313 61.8716 287.56 Q58.7843 290.774 53.6281 290.774 Q47.6125 290.774 44.5569 286.764 Q41.5014 282.722 41.5014 274.733 L41.5014 266.521 L40.9285 266.521 Q36.8862 266.521 34.6901 269.195 Q32.4621 271.836 32.4621 276.642 Q32.4621 279.698 33.1941 282.594 Q33.9262 285.491 35.3903 288.164 L29.9795 288.164 Q28.7381 284.95 28.1334 281.926 Q27.4968 278.902 27.4968 276.038 Q27.4968 268.303 31.5072 264.484 Q35.5176 260.664 43.6657 260.664 Z" fill="#000000" fill-rule="evenodd" fill-opacity="1" /><path clip-path="url(#clip990)" d="M46.212 223.011 Q39.7508 223.011 36.0905 225.685 Q32.3984 228.327 32.3984 232.974 Q32.3984 237.621 36.0905 240.294 Q39.7508 242.936 46.212 242.936 Q52.6732 242.936 56.3653 240.294 Q60.0256 237.621 60.0256 232.974 Q60.0256 228.327 56.3653 225.685 Q52.6732 223.011 46.212 223.011 M33.7671 242.936 Q30.5842 241.09 29.0564 238.289 Q27.4968 235.456 27.4968 231.541 Q27.4968 225.048 32.6531 221.006 Q37.8093 216.932 46.212 216.932 Q54.6147 216.932 59.771 221.006 Q64.9272 225.048 64.9272 231.541 Q64.9272 235.456 63.3994 238.289 Q61.8398 241.09 58.657 242.936 L64.0042 242.936 L64.0042 248.824 L14.479 248.824 L14.479 242.936 L33.7671 242.936 Z" fill="#000000" fill-rule="evenodd" fill-opacity="1" /><path clip-path="url(#clip990)" d="M28.3562 207.224 L28.3562 201.368 L64.0042 201.368 L64.0042 207.224 L28.3562 207.224 M14.479 207.224 L14.479 201.368 L21.895 201.368 L21.895 207.224 L14.479 207.224 Z" fill="#000000" fill-rule="evenodd" fill-opacity="1" /><path clip-path="url(#clip990)" d="M14.479 189.114 L14.479 183.257 L64.0042 183.257 L64.0042 189.114 L14.479 189.114 Z" fill="#000000" fill-rule="evenodd" fill-opacity="1" /><path clip-path="url(#clip990)" d="M28.3562 171.003 L28.3562 165.147 L64.0042 165.147 L64.0042 171.003 L28.3562 171.003 M14.479 171.003 L14.479 165.147 L21.895 165.147 L21.895 171.003 L14.479 171.003 Z" fill="#000000" fill-rule="evenodd" fill-opacity="1" /><path clip-path="url(#clip990)" d="M18.2347 147.1 L28.3562 147.1 L28.3562 135.037 L32.9077 135.037 L32.9077 147.1 L52.2594 147.1 Q56.6199 147.1 57.8613 145.923 Q59.1026 144.713 59.1026 141.053 L59.1026 135.037 L64.0042 135.037 L64.0042 141.053 Q64.0042 147.832 61.4897 150.41 Q58.9434 152.989 52.2594 152.989 L32.9077 152.989 L32.9077 157.285 L28.3562 157.285 L28.3562 152.989 L18.2347 152.989 L18.2347 147.1 Z" fill="#000000" fill-rule="evenodd" fill-opacity="1" /><path clip-path="url(#clip990)" d="M67.3143 112.503 Q73.68 114.985 75.6216 117.341 Q77.5631 119.696 77.5631 123.643 L77.5631 128.321 L72.6615 128.321 L72.6615 124.884 Q72.6615 122.465 71.5157 121.128 Q70.3699 119.791 66.1048 118.168 L63.4312 117.118 L28.3562 131.536 L28.3562 125.33 L56.238 114.19 L28.3562 103.05 L28.3562 96.843 L67.3143 112.503 Z" fill="#000000" fill-rule="evenodd" fill-opacity="1" /><polyline clip-path="url(#clip992)" style="stroke:#009af9; stroke-linecap:round; stroke-linejoin:round; stroke-width:4; stroke-opacity:1; fill:none" points="309.067,86.1857 311.051,86.1857 313.035,86.1857 315.019,86.1857 317.004,86.1857 318.988,86.1857 320.972,86.1857 322.956,86.1857 324.94,86.1857 326.924,86.1857 328.909,86.1857 330.893,86.1857 332.877,86.1857 334.861,86.1857 336.845,86.1857 338.829,86.1857 340.814,86.1857 342.798,86.1857 344.782,86.1857 346.766,86.1857 348.75,86.1857 350.734,86.1857 352.719,86.1857 354.703,86.1857 356.687,86.1857 358.671,86.1857 360.655,86.1857 362.639,86.1857 364.624,86.1857 366.608,86.1857 368.592,86.1857 370.576,86.1857 372.56,86.1857 374.544,86.1857 376.529,86.1857 378.513,86.1857 380.497,86.1857 382.481,86.1857 384.465,86.1857 386.449,86.1857 388.434,86.1857 390.418,86.1857 392.402,86.1857 394.386,86.1857 396.37,86.1857 398.354,86.1857 400.338,86.1857 402.323,86.1857 404.307,86.1857 406.291,86.1857 408.275,86.1857 410.259,86.1857 412.243,86.1857 414.228,86.1857 416.212,86.1857 418.196,86.1857 420.18,86.1857 422.164,86.1857 424.148,86.1857 426.133,86.1857 428.117,86.1857 430.101,86.1857 432.085,86.1857 434.069,86.1857 436.053,86.1857 438.038,86.1857 440.022,86.1857 442.006,86.1857 443.99,86.1857 445.974,86.1857 447.958,86.1857 449.943,86.1857 451.927,86.1857 453.911,86.1857 455.895,86.1857 457.879,86.1857 459.863,86.1857 461.848,86.1857 463.832,86.1857 465.816,86.1857 467.8,86.1857 469.784,86.1857 471.768,86.1857 473.753,86.1857 475.737,86.1857 477.721,86.1857 479.705,86.1857 481.689,86.1857 483.673,86.1857 485.658,86.1857 487.642,86.1857 489.626,86.1857 491.61,86.1857 493.594,86.1857 495.578,86.1857 497.563,86.1857 499.547,86.1857 501.531,86.1857 503.515,86.1857 505.499,86.1857 507.483,86.1857 509.468,86.1857 511.452,86.1857 513.436,86.1857 515.42,86.1857 517.404,86.1857 519.388,86.1857 521.373,86.1857 523.357,86.1857 525.341,86.1857 527.325,86.1857 529.309,86.1857 531.293,86.1857 533.277,86.1857 535.262,86.1857 537.246,86.1857 539.23,86.1857 541.214,86.1857 543.198,86.1857 545.182,86.1857 547.167,86.1857 549.151,86.1857 551.135,86.1857 553.119,86.1857 555.103,86.1857 557.087,86.1857 559.072,86.1857 561.056,86.1857 563.04,86.1857 565.024,86.1857 567.008,86.1857 568.992,86.1857 570.977,86.1857 572.961,86.1857 574.945,86.1857 576.929,86.1857 578.913,86.1857 580.897,86.1857 582.882,86.1857 584.866,86.1857 586.85,86.1857 588.834,86.1857 590.818,86.1858 592.802,86.1858 594.787,86.1858 596.771,86.1858 598.755,86.1858 600.739,86.1859 602.723,86.1859 604.707,86.1859 606.692,86.186 608.676,86.186 610.66,86.1861 612.644,86.1862 614.628,86.1863 616.612,86.1864 618.597,86.1865 620.581,86.1866 622.565,86.1867 624.549,86.1869 626.533,86.1871 628.517,86.1873 630.502,86.1875 632.486,86.1878 634.47,86.1881 636.454,86.1885 638.438,86.1889 640.422,86.1894 642.407,86.1899 644.391,86.1905 646.375,86.1912 648.359,86.192 650.343,86.1928 652.327,86.1938 654.311,86.1949 656.296,86.1961 658.28,86.1974 660.264,86.199 662.248,86.2007 664.232,86.2026 666.216,86.2047 668.201,86.2071 670.185,86.2097 672.169,86.2127 674.153,86.2159 676.137,86.2196 678.121,86.2236 680.106,86.228 682.09,86.233 684.074,86.2384 686.058,86.2444 688.042,86.251 690.026,86.2583 692.011,86.2664 693.995,86.2752 695.979,86.2849 697.963,86.2955 699.947,86.3072 701.931,86.32 703.916,86.334 705.9,86.3493 707.884,86.366 709.868,86.3843 711.852,86.4042 713.836,86.4259 715.821,86.4495 717.805,86.4751 719.789,86.503 721.773,86.5333 723.757,86.5661 725.741,86.6017 727.726,86.6402 729.71,86.6819 731.694,86.7269 733.678,86.7756 735.662,86.8281 737.646,86.8848 739.631,86.9458 741.615,87.0116 743.599,87.0823 745.583,87.1583 747.567,87.24 749.551,87.3276 751.536,87.4217 753.52,87.5224 755.504,87.6304 757.488,87.7459 759.472,87.8694 761.456,88.0014 763.441,88.1424 765.425,88.2928 767.409,88.4532 769.393,88.6242 771.377,88.8062 773.361,88.9999 775.346,89.2059 777.33,89.4248 779.314,89.6572 781.298,89.904 783.282,90.1656 785.266,90.4429 787.25,90.7367 789.235,91.0476 791.219,91.3765 793.203,91.7241 795.187,92.0915 797.171,92.4793 799.155,92.8885 801.14,93.32 803.124,93.7748 805.108,94.2537 807.092,94.7579 809.076,95.2882 811.06,95.8458 813.045,96.4317 815.029,97.0469 817.013,97.6925 818.997,98.3698 820.981,99.0797 822.965,99.8235 824.95,100.602 826.934,101.417 828.918,102.27 830.902,103.161 832.886,104.092 834.87,105.064 836.855,106.079 838.839,107.138 840.823,108.241 842.807,109.391 844.791,110.589 846.775,111.835 848.76,113.132 850.744,114.481 852.728,115.882 854.712,117.338 856.696,118.85 858.68,120.419 860.665,122.046 862.649,123.733 864.633,125.482 866.617,127.292 868.601,129.167 870.585,131.106 872.57,133.113 874.554,135.186 876.538,137.329 878.522,139.542 880.506,141.827 882.49,144.185 884.475,146.616 886.459,149.123 888.443,151.706 890.427,154.367 892.411,157.106 894.395,159.925 896.38,162.824 898.364,165.806 900.348,168.87 902.332,172.018 904.316,175.25 906.3,178.568 908.284,181.973 910.269,185.464 912.253,189.043 914.237,192.711 916.221,196.468 918.205,200.315 920.189,204.252 922.174,208.281 924.158,212.4 926.142,216.611 928.126,220.915 930.11,225.311 932.094,229.799 934.079,234.38 936.063,239.055 938.047,243.822 940.031,248.682 942.015,253.636 943.999,258.682 945.984,263.821 947.968,269.052 949.952,274.376 951.936,279.791 953.92,285.298 955.904,290.896 957.889,296.584 959.873,302.362 961.857,308.23 963.841,314.185 965.825,320.229 967.809,326.359 969.794,332.575 971.778,338.876 973.762,345.261 975.746,351.73 977.73,358.279 979.714,364.91 981.699,371.619 983.683,378.407 985.667,385.272 987.651,392.211 989.635,399.225 991.619,406.311 993.604,413.468 995.588,420.693 997.572,427.987 999.556,435.346 1001.54,442.769 1003.52,450.255 1005.51,457.801 1007.49,465.405 1009.48,473.067 1011.46,480.783 1013.45,488.552 1015.43,496.372 1017.41,504.24 1019.4,512.156 1021.38,520.116 1023.37,528.118 1025.35,536.162 1027.33,544.243 1029.32,552.36 1031.3,560.512 1033.29,568.695 1035.27,576.908 1037.26,585.148 1039.24,593.412 1041.22,601.7 1043.21,610.008 1045.19,618.335 1047.18,626.678 1049.16,635.034 1051.14,643.402 1053.13,651.779 1055.11,660.163 1057.1,668.552 1059.08,676.943 1061.07,685.334 1063.05,693.724 1065.03,702.109 1067.02,710.489 1069,718.859 1070.99,727.219 1072.97,735.567 1074.95,743.899 1076.94,752.214 1078.92,760.511 1080.91,768.786 1082.89,777.038 1084.88,785.265 1086.86,793.465 1088.84,801.636 1090.83,809.777 1092.81,817.884 1094.8,825.957 1096.78,833.994 1098.76,841.993 1100.75,849.952 1102.73,857.869 1104.72,865.743 1106.7,873.573 1108.69,881.356 1110.67,889.092 1112.65,896.778 1114.64,904.413 1116.62,911.997 1118.61,919.526 1120.59,927.001 1122.57,934.42 1124.56,941.782 1126.54,949.084 1128.53,956.328 1130.51,963.51 1132.5,970.631 1134.48,977.689 1136.46,984.683 1138.45,991.612 1140.43,998.476 1142.42,1005.27 1144.4,1012 1146.38,1018.67 1148.37,1025.26 1150.35,1031.78 1152.34,1038.24 1154.32,1044.62 1156.3,1050.93 1158.29,1057.17 1160.27,1063.34 1162.26,1069.44 1164.24,1075.46 1166.23,1081.41 1168.21,1087.29 1170.19,1093.09 1172.18,1098.82 1174.16,1104.48 1176.15,1110.06 1178.13,1115.56 1180.11,1121 1182.1,1126.35 1184.08,1131.64 1186.07,1136.84 1188.05,1141.98 1190.04,1147.04 1192.02,1152.02 1194,1156.94 1195.99,1161.77 1197.97,1166.54 1199.96,1171.23 1201.94,1175.85 1203.92,1180.39 1205.91,1184.86 1207.89,1189.27 1209.88,1193.59 1211.86,1197.85 1213.85,1202.04 1215.83,1206.15 1217.81,1210.2 1219.8,1214.18 1221.78,1218.08 1223.77,1221.92 1225.75,1225.69 1227.73,1229.4 1229.72,1233.03 1231.7,1236.61 1233.69,1240.11 1235.67,1243.55 1237.66,1246.93 1239.64,1250.24 1241.62,1253.49 1243.61,1256.67 1245.59,1259.8 1247.58,1262.86 1249.56,1265.86 1251.54,1268.81 1253.53,1271.69 1255.51,1274.52 1257.5,1277.29 1259.48,1280 1261.47,1282.65 1263.45,1285.25 1265.43,1287.8 1267.42,1290.29 1269.4,1292.73 1271.39,1295.12 1273.37,1297.45 1275.35,1299.74 1277.34,1301.97 1279.32,1304.15 1281.31,1306.29 1283.29,1308.38 1285.28,1310.42 1287.26,1312.42 1289.24,1314.37 1291.23,1316.27 1293.21,1318.13 1295.2,1319.95 1297.18,1321.72 1299.16,1323.46 1301.15,1325.15 1303.13,1326.8 1305.12,1328.41 1307.1,1329.99 1309.09,1331.52 1311.07,1333.02 1313.05,1334.48 1315.04,1335.91 1317.02,1337.3 1319.01,1338.65 1320.99,1339.97 1322.97,1341.26 1324.96,1342.51 1326.94,1343.74 1328.93,1344.93 1330.91,1346.09 1332.9,1347.22 1334.88,1348.32 1336.86,1349.39 1338.85,1350.44 1340.83,1351.45 1342.82,1352.44 1344.8,1353.4 1346.78,1354.34 1348.77,1355.25 1350.75,1356.14 1352.74,1357 1354.72,1357.84 1356.71,1358.66 1358.69,1359.45 1360.67,1360.22 1362.66,1360.97 1364.64,1361.7 1366.63,1362.41 1368.61,1363.1 1370.59,1363.77 1372.58,1364.42 1374.56,1365.05 1376.55,1365.66 1378.53,1366.26 1380.52,1366.84 1382.5,1367.4 1384.48,1367.94 1386.47,1368.47 1388.45,1368.99 1390.44,1369.48 1392.42,1369.97 1394.4,1370.44 1396.39,1370.89 1398.37,1371.33 1400.36,1371.76 1402.34,1372.18 1404.33,1372.58 1406.31,1372.97 1408.29,1373.35 1410.28,1373.71 1412.26,1374.07 1414.25,1374.41 1416.23,1374.75 1418.21,1375.07 1420.2,1375.38 1422.18,1375.68 1424.17,1375.98 1426.15,1376.26 1428.14,1376.54 1430.12,1376.8 1432.1,1377.06 1434.09,1377.31 1436.07,1377.55 1438.06,1377.79 1440.04,1378.01 1442.02,1378.23 1444.01,1378.44 1445.99,1378.65 1447.98,1378.85 1449.96,1379.04 1451.95,1379.22 1453.93,1379.4 1455.91,1379.58 1457.9,1379.74 1459.88,1379.9 1461.87,1380.06 1463.85,1380.21 1465.83,1380.36 1467.82,1380.5 1469.8,1380.63 1471.79,1380.77 1473.77,1380.89 1475.76,1381.02 1477.74,1381.13 1479.72,1381.25 1481.71,1381.36 1483.69,1381.47 1485.68,1381.57 1487.66,1381.67 1489.64,1381.76 1491.63,1381.86 1493.61,1381.94 1495.6,1382.03 1497.58,1382.11 1499.57,1382.19 1501.55,1382.27 1503.53,1382.35 1505.52,1382.42 1507.5,1382.49 1509.49,1382.55 1511.47,1382.62 1513.45,1382.68 1515.44,1382.74 1517.42,1382.8 1519.41,1382.85 1521.39,1382.91 1523.38,1382.96 1525.36,1383.01 1527.34,1383.06 1529.33,1383.1 1531.31,1383.15 1533.3,1383.19 1535.28,1383.23 1537.26,1383.27 1539.25,1383.31 1541.23,1383.34 1543.22,1383.38 1545.2,1383.41 1547.19,1383.45 1549.17,1383.48 1551.15,1383.51 1553.14,1383.54 1555.12,1383.56 1557.11,1383.59 1559.09,1383.62 1561.07,1383.64 1563.06,1383.67 1565.04,1383.69 1567.03,1383.71 1569.01,1383.73 1571,1383.75 1572.98,1383.77 1574.96,1383.79 1576.95,1383.81 1578.93,1383.83 1580.92,1383.84 1582.9,1383.86 1584.88,1383.88 1586.87,1383.89 1588.85,1383.91 1590.84,1383.92 1592.82,1383.93 1594.81,1383.94 1596.79,1383.96 1598.77,1383.97 1600.76,1383.98 1602.74,1383.99 1604.73,1384 1606.71,1384.01 1608.69,1384.02 1610.68,1384.03 1612.66,1384.04 1614.65,1384.05 1616.63,1384.05 1618.62,1384.06 1620.6,1384.07 1622.58,1384.08 1624.57,1384.08 1626.55,1384.09 1628.54,1384.1 1630.52,1384.1 1632.5,1384.11 1634.49,1384.11 1636.47,1384.12 1638.46,1384.12 1640.44,1384.13 1642.43,1384.13 1644.41,1384.14 1646.39,1384.14 1648.38,1384.15 1650.36,1384.15 1652.35,1384.15 1654.33,1384.16 1656.31,1384.16 1658.3,1384.17 1660.28,1384.17 1662.27,1384.17 1664.25,1384.17 1666.24,1384.18 1668.22,1384.18 1670.2,1384.18 1672.19,1384.18 1674.17,1384.19 1676.16,1384.19 1678.14,1384.19 1680.12,1384.19 1682.11,1384.2 1684.09,1384.2 1686.08,1384.2 1688.06,1384.2 1690.05,1384.2 1692.03,1384.2 1694.01,1384.21 1696,1384.21 1697.98,1384.21 1699.97,1384.21 1701.95,1384.21 1703.93,1384.21 1705.92,1384.21 1707.9,1384.21 1709.89,1384.22 1711.87,1384.22 1713.86,1384.22 1715.84,1384.22 1717.82,1384.22 1719.81,1384.22 1721.79,1384.22 1723.78,1384.22 1725.76,1384.22 1727.74,1384.22 1729.73,1384.22 1731.71,1384.22 1733.7,1384.23 1735.68,1384.23 1737.67,1384.23 1739.65,1384.23 1741.63,1384.23 1743.62,1384.23 1745.6,1384.23 1747.59,1384.23 1749.57,1384.23 1751.55,1384.23 1753.54,1384.23 1755.52,1384.23 1757.51,1384.23 1759.49,1384.23 1761.48,1384.23 1763.46,1384.23 1765.44,1384.23 1767.43,1384.23 1769.41,1384.23 1771.4,1384.23 1773.38,1384.23 1775.36,1384.23 1777.35,1384.23 1779.33,1384.23 1781.32,1384.23 1783.3,1384.23 1785.28,1384.23 1787.27,1384.23 1789.25,1384.23 1791.24,1384.24 1793.22,1384.24 1795.21,1384.24 1797.19,1384.24 1799.17,1384.24 1801.16,1384.24 1803.14,1384.24 1805.13,1384.24 1807.11,1384.24 1809.09,1384.24 1811.08,1384.24 1813.06,1384.24 1815.05,1384.24 1817.03,1384.24 1819.02,1384.24 1821,1384.24 1822.98,1384.24 1824.97,1384.24 1826.95,1384.24 1828.94,1384.24 1830.92,1384.24 1832.9,1384.24 1834.89,1384.24 1836.87,1384.24 1838.86,1384.24 1840.84,1384.24 1842.83,1384.24 1844.81,1384.24 1846.79,1384.24 1848.78,1384.24 1850.76,1384.24 1852.75,1384.24 1854.73,1384.24 1856.71,1384.24 1858.7,1384.24 1860.68,1384.24 1862.67,1384.24 1864.65,1384.24 1866.64,1384.24 1868.62,1384.24 1870.6,1384.24 1872.59,1384.24 1874.57,1384.24 1876.56,1384.24 1878.54,1384.24 1880.52,1384.24 1882.51,1384.24 1884.49,1384.24 1886.48,1384.24 1888.46,1384.24 1890.45,1384.24 1892.43,1384.24 1894.41,1384.24 1896.4,1384.24 1898.38,1384.24 1900.37,1384.24 1902.35,1384.24 1904.33,1384.24 1906.32,1384.24 1908.3,1384.24 1910.29,1384.24 1912.27,1384.24 1914.26,1384.24 1916.24,1384.24 1918.22,1384.24 1920.21,1384.24 1922.19,1384.24 1924.18,1384.24 1926.16,1384.24 1928.14,1384.24 1930.13,1384.24 1932.11,1384.24 1934.1,1384.24 1936.08,1384.24 1938.07,1384.24 1940.05,1384.24 1942.03,1384.24 1944.02,1384.24 1946,1384.24 1947.99,1384.24 1949.97,1384.24 1951.95,1384.24 1953.94,1384.24 1955.92,1384.24 1957.91,1384.24 1959.89,1384.24 1961.88,1384.24 1963.86,1384.24 1965.84,1384.24 1967.83,1384.24 1969.81,1384.24 1971.8,1384.24 1973.78,1384.24 1975.76,1384.24 1977.75,1384.24 1979.73,1384.24 1981.72,1384.24 1983.7,1384.24 1985.69,1384.24 1987.67,1384.24 1989.65,1384.24 1991.64,1384.24 1993.62,1384.24 1995.61,1384.24 1997.59,1384.24 1999.57,1384.24 2001.56,1384.24 2003.54,1384.24 2005.53,1384.24 2007.51,1384.24 2009.5,1384.24 2011.48,1384.24 2013.46,1384.24 2015.45,1384.24 2017.43,1384.24 2019.42,1384.24 2021.4,1384.24 2023.38,1384.24 2025.37,1384.24 2027.35,1384.24 2029.34,1384.24 2031.32,1384.24 2033.31,1384.24 2035.29,1384.24 2037.27,1384.24 2039.26,1384.24 2041.24,1384.24 2043.23,1384.24 2045.21,1384.24 2047.19,1384.24 2049.18,1384.24 2051.16,1384.24 2053.15,1384.24 2055.13,1384.24 2057.12,1384.24 2059.1,1384.24 2061.08,1384.24 2063.07,1384.24 2065.05,1384.24 2067.04,1384.24 2069.02,1384.24 2071,1384.24 2072.99,1384.24 2074.97,1384.24 2076.96,1384.24 2078.94,1384.24 2080.93,1384.24 2082.91,1384.24 2084.89,1384.24 2086.88,1384.24 2088.86,1384.24 2090.85,1384.24 2092.83,1384.24 2094.81,1384.24 2096.8,1384.24 2098.78,1384.24 2100.77,1384.24 2102.75,1384.24 2104.74,1384.24 2106.72,1384.24 2108.7,1384.24 2110.69,1384.24 2112.67,1384.24 2114.66,1384.24 2116.64,1384.24 2118.62,1384.24 2120.61,1384.24 2122.59,1384.24 2124.58,1384.24 2126.56,1384.24 2128.55,1384.24 2130.53,1384.24 2132.51,1384.24 2134.5,1384.24 2136.48,1384.24 2138.47,1384.24 2140.45,1384.24 2142.43,1384.24 2144.42,1384.24 2146.4,1384.24 2148.39,1384.24 2150.37,1384.24 2152.36,1384.24 2154.34,1384.24 2156.32,1384.24 2158.31,1384.24 2160.29,1384.24 2162.28,1384.24 2164.26,1384.24 2166.24,1384.24 2168.23,1384.24 2170.21,1384.24 2172.2,1384.24 2174.18,1384.24 2176.17,1384.24 2178.15,1384.24 2180.13,1384.24 2182.12,1384.24 2184.1,1384.24 2186.09,1384.24 2188.07,1384.24 2190.05,1384.24 2192.04,1384.24 2194.02,1384.24 2196.01,1384.24 2197.99,1384.24 2199.98,1384.24 2201.96,1384.24 2203.94,1384.24 2205.93,1384.24 2207.91,1384.24 2209.9,1384.24 2211.88,1384.24 2213.86,1384.24 2215.85,1384.24 2217.83,1384.24 2219.82,1384.24 2221.8,1384.24 2223.79,1384.24 2225.77,1384.24 2227.75,1384.24 2229.74,1384.24 2231.72,1384.24 2233.71,1384.24 2235.69,1384.24 2237.67,1384.24 2239.66,1384.24 2241.64,1384.24 2243.63,1384.24 2245.61,1384.24 2247.6,1384.24 2249.58,1384.24 2251.56,1384.24 2253.55,1384.24 2255.53,1384.24 2257.52,1384.24 2259.5,1384.24 2261.48,1384.24 2263.47,1384.24 2265.45,1384.24 2267.44,1384.24 2269.42,1384.24 2271.41,1384.24 2273.39,1384.24 2275.37,1384.24 2277.36,1384.24 2279.34,1384.24 2281.33,1384.24 2283.31,1384.24 2285.29,1384.24 2287.28,1384.24 2289.26,1384.24 2291.25,1384.24 2293.23,1384.24 "/>
</svg>
